<svg xmlns="http://www.w3.org/2000/svg" xmlns:xlink="http://www.w3.org/1999/xlink" width="132" height="132" viewBox="0 0 132 132">
  <defs>
    <clipPath id="clip-path">
      <rect id="Rectangle_1559" data-name="Rectangle 1559" width="86.359" height="65.353" fill="none"/>
    </clipPath>
  </defs>
  <g id="Group_5639" data-name="Group 5639" transform="translate(-711 -4188)">
    <rect id="Rectangle_1605" data-name="Rectangle 1605" width="132" height="132" rx="19" transform="translate(711 4188)" fill="#f7f7f7"/>
    <g id="Group_5442" data-name="Group 5442" transform="translate(733.82 4221.477)">
      <g id="Group_5441" data-name="Group 5441" transform="translate(0 0)" clip-path="url(#clip-path)">
        <path id="Path_6149" data-name="Path 6149" d="M63.9,60.795l-6.894-1-3.083-6.246a1.771,1.771,0,0,0-3.176,0l-3.083,6.246-6.894,1a1.771,1.771,0,0,0-.981,3.021l4.989,4.863L43.6,75.545a1.771,1.771,0,0,0,2.569,1.867l6.167-3.242L58.5,77.412a1.771,1.771,0,0,0,2.57-1.867L59.9,68.678l4.989-4.862a1.771,1.771,0,0,0-.982-3.021" transform="translate(-9.158 -12.262)" fill="#717f31"/>
        <path id="Path_6150" data-name="Path 6150" d="M52.338,52.558a1.769,1.769,0,0,0-1.588.988l-3.084,6.247-6.893,1a1.771,1.771,0,0,0-.983,3.021l4.99,4.863L43.6,75.544a1.772,1.772,0,0,0,2.571,1.867l6.166-3.242Z" transform="translate(-9.158 -12.262)" fill="#5d6d27"/>
        <path id="Path_6151" data-name="Path 6151" d="M26.546,60.795l-6.894-1-3.083-6.246a1.771,1.771,0,0,0-3.176,0L10.31,59.793l-6.894,1a1.771,1.771,0,0,0-.981,3.021l4.989,4.863L6.245,75.545a1.771,1.771,0,0,0,2.569,1.867l6.167-3.242,6.167,3.242a1.771,1.771,0,0,0,2.569-1.867l-1.178-6.866,4.989-4.863a1.771,1.771,0,0,0-.982-3.021" transform="translate(-0.443 -12.262)" fill="#717f31"/>
        <path id="Path_6152" data-name="Path 6152" d="M14.981,52.558a1.772,1.772,0,0,0-1.589.988l-3.084,6.247-6.893,1a1.771,1.771,0,0,0-.982,3.021l4.989,4.863L6.246,75.544a1.771,1.771,0,0,0,2.57,1.867l6.166-3.242Z" transform="translate(-0.443 -12.262)" fill="#5d6d27"/>
        <path id="Path_6153" data-name="Path 6153" d="M101.26,60.795l-6.894-1-3.083-6.246a1.771,1.771,0,0,0-3.176,0l-3.083,6.246-6.894,1a1.771,1.771,0,0,0-.981,3.021l4.988,4.863-1.177,6.866a1.771,1.771,0,0,0,2.569,1.867L89.7,74.17l6.167,3.242a1.771,1.771,0,0,0,2.569-1.867l-1.178-6.866,4.989-4.863a1.771,1.771,0,0,0-.982-3.021" transform="translate(-17.874 -12.262)" fill="#717f31"/>
        <path id="Path_6154" data-name="Path 6154" d="M89.695,52.558a1.771,1.771,0,0,0-1.588.988l-3.084,6.247-6.893,1a1.771,1.771,0,0,0-.981,3.021l4.988,4.863L80.96,75.544a1.771,1.771,0,0,0,2.569,1.867l6.166-3.242Z" transform="translate(-17.874 -12.262)" fill="#5d6d27"/>
        <path id="Path_6155" data-name="Path 6155" d="M74.2,0H12.163A12.177,12.177,0,0,0,0,12.163v8.208A12.179,12.179,0,0,0,10.846,32.462l2.63,3.5a4.6,4.6,0,0,0,3.636,1.853h.074A4.6,4.6,0,0,0,20.8,36.081l2.841-3.548H74.2A12.177,12.177,0,0,0,86.359,20.371V12.163A12.177,12.177,0,0,0,74.2,0" transform="translate(0 0)" fill="#717f31"/>
        <path id="Path_6156" data-name="Path 6156" d="M43.18,0H12.164A12.177,12.177,0,0,0,0,12.163v8.208A12.178,12.178,0,0,0,10.846,32.462l2.63,3.5a4.606,4.606,0,0,0,3.636,1.853h.074A4.6,4.6,0,0,0,20.8,36.081l2.841-3.548H43.18Z" transform="translate(0 0)" fill="#717f31"/>
        <path id="Path_6157" data-name="Path 6157" d="M75.345,11.148H18.434a2.53,2.53,0,1,0,0,5.06H75.345a2.53,2.53,0,1,0,0-5.06" transform="translate(-3.71 -2.601)" fill="#fff"/>
        <path id="Path_6158" data-name="Path 6158" d="M46.89,11.148H18.435a2.53,2.53,0,1,0,0,5.06H46.89Z" transform="translate(-3.71 -2.601)" fill="#fff"/>
        <path id="Path_6159" data-name="Path 6159" d="M41.465,24.417H18.435a2.53,2.53,0,1,0,0,5.06H41.465a2.53,2.53,0,0,0,0-5.06" transform="translate(-3.711 -5.697)" fill="#fff"/>
      </g>
    </g>
  </g>
</svg>
