<svg xmlns="http://www.w3.org/2000/svg" xmlns:xlink="http://www.w3.org/1999/xlink" width="132" height="132" viewBox="0 0 132 132">
  <defs>
    <clipPath id="clip-path">
      <rect id="Rectangle_1558" data-name="Rectangle 1558" width="77.28" height="79.914" fill="none"/>
    </clipPath>
  </defs>
  <g id="Group_5638" data-name="Group 5638" transform="translate(-353 -4188)">
    <rect id="Rectangle_1604" data-name="Rectangle 1604" width="132" height="132" rx="19" transform="translate(353 4188)" fill="#f7f7f7"/>
    <g id="Group_5440" data-name="Group 5440" transform="translate(380.321 4211.533)">
      <g id="Group_5439" data-name="Group 5439" transform="translate(0 0)" clip-path="url(#clip-path)">
        <path id="Path_6135" data-name="Path 6135" d="M58.262,42.237H37.975a2.345,2.345,0,0,1-1.193-4.365c8.839-5.223,13.431-11.316,14.036-18.626a5.043,5.043,0,0,1,5.036-4.531,9.913,9.913,0,0,1,9.758,9.91h0v.788c0,6.4-1.9,10.48-5.393,15.771a2.347,2.347,0,0,1-1.957,1.052" transform="translate(-5.846 -2.414)" fill="#69762d"/>
        <path id="Path_6136" data-name="Path 6136" d="M81.214,49.376a7.358,7.358,0,0,0-7.349-7.349h-37.8a2.348,2.348,0,0,0-1.194.326c-2.654,1.569-5.333,2.861-7.486,3.9-.751.362-1.46.7-2.106,1.027a2.347,2.347,0,0,0-1.3,2.1V79.4a2.347,2.347,0,0,0,1.3,2.1c9.478,4.738,17.356,5.311,26.543,5.311,1.423,0,2.878-.013,4.374-.028,1.654-.016,3.365-.032,5.159-.032H68.77A7.347,7.347,0,0,0,75.1,75.665a7.344,7.344,0,0,0,2.5-10.009,7.342,7.342,0,0,0,1.6-11.225,7.3,7.3,0,0,0,2.014-5.056" transform="translate(-3.935 -6.896)" fill="#717f31"/>
        <path id="Path_6137" data-name="Path 6137" d="M85.169,25.428h-5a2.346,2.346,0,1,1,0-4.691h5a2.346,2.346,0,0,1,0,4.691" transform="translate(-12.768 -3.403)" fill="#43b39a"/>
        <path id="Path_6138" data-name="Path 6138" d="M43.266,25.428h-5a2.346,2.346,0,0,1,0-4.691h5a2.346,2.346,0,1,1,0,4.691" transform="translate(-5.893 -3.403)" fill="#43b39a"/>
        <path id="Path_6139" data-name="Path 6139" d="M52.739,9.026a2.345,2.345,0,0,1-2.034-1.173L48.2,3.518a2.346,2.346,0,0,1,4.063-2.346l2.5,4.334a2.346,2.346,0,0,1-2.029,3.518" transform="translate(-7.857 0)" fill="#43b39a"/>
        <path id="Path_6140" data-name="Path 6140" d="M71.184,9.025a2.346,2.346,0,0,1-2.03-3.518l2.5-4.334A2.346,2.346,0,0,1,75.72,3.518l-2.5,4.334a2.343,2.343,0,0,1-2.033,1.173" transform="translate(-11.295 0)" fill="#43b39a"/>
        <path id="Path_6141" data-name="Path 6141" d="M16.663,80.325V92.678H11.972V80.325a2.346,2.346,0,1,1,4.691,0" transform="translate(-1.964 -12.795)" fill="#66b3e5"/>
        <path id="Path_6142" data-name="Path 6142" d="M85.169,25.428h-5a2.346,2.346,0,1,1,0-4.691h5a2.346,2.346,0,0,1,0,4.691" transform="translate(-12.768 -3.403)" fill="#555f24"/>
        <path id="Path_6143" data-name="Path 6143" d="M43.266,25.428h-5a2.346,2.346,0,0,1,0-4.691h5a2.346,2.346,0,1,1,0,4.691" transform="translate(-5.893 -3.403)" fill="#555f24"/>
        <path id="Path_6144" data-name="Path 6144" d="M52.739,9.026a2.345,2.345,0,0,1-2.034-1.173L48.2,3.518a2.346,2.346,0,0,1,4.063-2.346l2.5,4.334a2.346,2.346,0,0,1-2.029,3.518" transform="translate(-7.857 0)" fill="#555f24"/>
        <path id="Path_6145" data-name="Path 6145" d="M71.184,9.025a2.346,2.346,0,0,1-2.03-3.518l2.5-4.334A2.346,2.346,0,0,1,75.72,3.518l-2.5,4.334a2.343,2.343,0,0,1-2.033,1.173" transform="translate(-11.295 0)" fill="#555f24"/>
        <path id="Path_6146" data-name="Path 6146" d="M16.663,80.325V92.678H11.972V80.325a2.346,2.346,0,1,1,4.691,0" transform="translate(-1.964 -12.795)" fill="#66b3e5"/>
        <path id="Path_6147" data-name="Path 6147" d="M22.361,42.027H2.346A2.346,2.346,0,0,0,0,44.373V84.4a2.39,2.39,0,0,0,2.346,2.375H17.357a7.433,7.433,0,0,0,6.575-4.1,7.285,7.285,0,0,0,.774-3.278V44.373a2.346,2.346,0,0,0-2.346-2.346" transform="translate(0 -6.896)" fill="#555f24"/>
        <path id="Path_6148" data-name="Path 6148" d="M16.663,80.138v12.51H11.972V80.138a2.346,2.346,0,1,1,4.691,0" transform="translate(-1.964 -12.764)" fill="#717f31"/>
      </g>
    </g>
  </g>
</svg>
